<svg width="42" height="42" viewBox="0 0 50 50" fill="none" xmlns="http://www.w3.org/2000/svg">
<circle cx="25" cy="25" r="24" fill="black"/>
<path fill-rule="evenodd" clip-rule="evenodd" d="M29.2974 28.7146C29.2974 28.0479 29.3068 27.3811 29.2924 26.7146C29.2872 26.4646 29.35 26.3733 29.621 26.3628C30.7634 26.3188 31.1958 26.6673 31.4097 27.8144C31.5694 28.6704 31.5314 29.5036 31.1998 30.3133C30.9314 30.9686 30.0495 31.3254 29.4126 31.0542C29.2309 30.9767 29.3026 30.8309 29.3011 30.7144C29.2932 30.0479 29.2974 29.3811 29.2974 28.7144V28.7146ZM38.9629 28.823C38.0189 30.9644 36.2916 32.1966 34.1461 32.9356C32.6817 33.4398 31.1558 33.528 29.6312 33.6466C29.2401 33.6772 29.2678 33.4466 29.3047 33.2214C29.3432 32.9861 29.0812 32.5793 29.6503 32.6044C30.3149 32.6338 30.982 32.5974 31.6474 32.6149C32.4139 32.6353 32.9492 32.2947 33.2998 31.6296C33.728 30.8173 33.883 29.94 33.9149 29.0338C33.9594 27.7741 33.8516 26.5403 33.2974 25.3822C32.9225 24.5989 32.389 24.1 31.4333 24.1937C30.8563 24.2505 30.2683 24.1879 29.6869 24.211C29.3843 24.2228 29.278 24.1419 29.2901 23.8251C29.3147 23.1927 29.2974 22.5586 29.2974 21.9254C29.2974 21.3919 29.3288 20.856 29.288 20.3259C29.2508 19.8479 29.356 19.6547 29.8911 19.6932C30.6691 19.7492 31.4545 19.7115 32.2367 19.7063C32.8642 19.7023 33.0204 19.5338 33.0181 18.8911C33.0157 18.3128 32.8403 18.1406 32.2259 18.1372C31.3605 18.1319 30.4948 18.1267 29.6293 18.1411C29.3702 18.1455 29.2663 18.0735 29.2935 17.8068C29.3136 17.6086 29.2974 17.407 29.2974 17.2073C29.2974 16.4843 29.2979 16.4777 30.0008 16.5251C32.2257 16.6756 34.3796 17.0649 36.2914 18.3267C38.5396 19.8105 39.6108 21.9262 39.6985 24.5827C39.7469 26.0466 39.5576 27.4743 38.9629 28.823V28.823ZM27.7233 18.044C27.5149 18.3272 26.9136 18.1526 26.4914 18.1272C24.8414 18.0275 23.8283 18.5673 23.4377 20.8628C23.2236 22.1209 23.3304 23.3864 23.7969 24.6002C23.954 25.0086 24.1665 25.3796 24.4453 25.7152C24.8071 26.1508 25.255 26.3879 25.8343 26.373C26.3668 26.3591 26.9005 26.3817 27.433 26.3657C27.7005 26.3576 27.8131 26.4196 27.8094 26.7201C27.7937 28.0542 27.793 29.3887 27.8094 30.723C27.8136 31.0332 27.6862 31.0694 27.4278 31.0662C26.4283 31.0544 25.4288 31.0639 24.4293 31.0605C24.06 31.0591 23.7864 31.1115 23.788 31.5982C23.7906 32.4157 23.855 32.5911 24.4055 32.6034C25.4045 32.6256 26.4045 32.6259 27.4034 32.6029C27.7424 32.595 27.8163 32.7084 27.81 33.0243C27.7961 33.7317 27.8126 33.7374 27.1063 33.745C25.8406 33.7581 24.5746 33.7563 23.3089 33.7801C23.006 33.7861 22.8364 33.6895 22.682 33.4217C21.0765 30.6424 19.4594 27.8694 17.8338 25.1016C17.6859 24.8497 17.6971 24.6683 17.8416 24.4235C19.3652 21.8466 20.8807 19.2649 22.3867 16.6775C22.5307 16.4303 22.6851 16.3267 22.9749 16.3345C23.7071 16.355 24.4403 16.3413 25.1733 16.3413V16.4005C25.939 16.4005 26.705 16.4076 27.4707 16.3963C27.7241 16.3926 27.8257 16.4675 27.8076 16.7364C27.7778 17.1824 27.9406 17.7487 27.7233 18.044V18.044ZM27.8026 21.9241C27.8026 22.5733 27.7916 23.2233 27.8079 23.8722C27.8147 24.1358 27.7278 24.2055 27.4681 24.2112C26.5584 24.2317 26.2935 24.0555 26.0639 23.1578C25.8325 22.2513 25.8503 21.3411 26.1445 20.4523C26.3718 19.7659 26.9814 19.4929 27.6621 19.7076C27.8608 19.7704 27.7982 19.9102 27.7995 20.0256C27.806 20.6584 27.8026 21.2913 27.8026 21.9241ZM42.4079 24.0256L42.388 23.5262L42.1283 22.2246L42.0778 21.945L41.5233 20.5233L41.3903 20.2207L40.4945 18.8238L40.1676 18.4311C39.6401 17.8932 39.0786 17.3929 38.4906 16.922L37.4532 16.2382C36.2165 15.6002 34.9466 15.0437 33.588 14.7214C32.6901 14.5081 31.7856 14.3243 30.8841 14.1272L30.3961 14.0837C28.4058 13.8327 26.4076 13.7036 24.4013 13.706L22.7985 13.7008C22.355 13.6652 21.9123 13.6204 21.4665 13.6165C20.9767 13.6123 20.6045 13.8008 20.3655 14.2379C20.1665 14.6016 19.9474 14.9536 19.7547 15.3212C19.6474 15.5979 19.477 15.8395 19.3307 16.0942C18.972 16.7539 18.5964 17.4039 18.2155 18.051C18.1019 18.2788 17.9841 18.5044 17.8333 18.7102C17.527 19.3123 17.1644 19.8822 16.8437 20.4759C16.7738 20.6214 16.6778 20.7508 16.5961 20.8895C16.3369 21.3725 16.104 21.872 15.7532 22.3345C15.4301 21.744 15.1176 21.2167 14.8178 20.6822C14.743 20.5377 14.6642 20.395 14.5757 20.2581C14.2223 19.6021 13.8173 18.9743 13.4788 18.3097C13.3296 18.1029 13.2092 17.8796 13.0969 17.6516C12.7503 17.0691 12.4223 16.4759 12.0812 15.8903C11.9712 15.6987 11.8479 15.5141 11.7537 15.3136C11.5741 14.9602 11.3584 14.6272 11.1718 14.2777C10.9207 13.8084 10.5396 13.5809 10.0005 13.6159C9.54112 13.6461 9.0817 13.6756 8.62097 13.6866C8.24139 13.7892 7.69505 13.5688 7.59715 14.217L8.18903 15.4186L8.41311 15.817L9.18432 17.1191L9.4084 17.5196C9.71311 17.9665 9.99584 18.4262 10.2212 18.9191C10.3587 19.0633 10.4584 19.2301 10.517 19.4212C10.8882 19.9649 11.2178 20.533 11.511 21.1222C11.6492 21.2688 11.7411 21.4424 11.81 21.6293C12.2097 22.2424 12.5869 22.8686 12.9131 23.5246C13.0841 23.7361 13.2283 23.9633 13.3181 24.222C13.8136 24.9565 13.8 24.701 13.2123 25.6288L12.9848 26.028L12.2108 27.3269L12.0228 27.6369C11.793 28.122 11.5149 28.5788 11.2094 29.0196C11.1788 29.1453 11.1176 29.2521 11.0178 29.3358C10.7629 29.8667 10.4581 30.368 10.1215 30.8508C10.0927 31.0036 10.0005 31.1199 9.9016 31.2322C9.61992 31.7916 9.30055 32.3288 8.94819 32.8466L8.60081 33.4335L7.42908 35.4413C7.42254 35.6369 7.27542 35.8139 7.35186 36.0209C7.72934 36.3845 8.21233 36.2924 8.66835 36.3351C9.70395 36.4319 10.5924 36.2568 11.0071 35.1419C11.1581 35.0971 11.2131 34.9623 11.2854 34.8437C11.521 34.4285 11.7461 34.0071 11.9788 33.5898C12.0657 33.4563 12.1427 33.3162 12.217 33.1749C12.454 32.7877 12.6521 32.379 12.8793 31.9864C12.9673 31.8523 13.0443 31.712 13.1189 31.5707C13.3736 31.1374 13.6066 30.6919 13.8723 30.2649C13.9416 30.1228 14.0066 29.978 14.0885 29.8421C14.3275 29.4547 14.5272 29.0437 14.7733 28.6607C14.8526 28.4971 14.9278 28.3319 15.0228 28.1767C15.244 27.8688 15.3657 27.4979 15.6262 27.1811C15.8862 27.5772 16.1034 27.9644 16.299 28.3644C16.3796 28.5021 16.4728 28.6319 16.544 28.7749C16.8058 29.2845 17.0974 29.7775 17.3867 30.2714C17.4448 30.3691 17.493 30.4722 17.5443 30.5733C17.7634 30.9989 18.0335 31.3966 18.2314 31.8335C18.305 31.9468 18.3833 32.0573 18.4443 32.1783C18.6422 32.6136 18.9312 33.0002 19.1259 33.4374C19.1909 33.5576 19.2597 33.6754 19.3346 33.7898C19.5563 34.184 19.7634 34.5864 19.9956 34.9749C20.0731 35.1162 20.1369 35.2686 20.3008 35.3372C20.5932 35.977 21.0385 36.3824 21.793 36.3322C21.9914 36.3191 22.1916 36.3358 22.3909 36.3351C23.5872 36.3311 24.7833 36.3259 25.9793 36.3209L26.061 36.329C26.3123 36.3269 26.5594 36.3759 26.8097 36.3809C28.0204 36.4097 29.2236 36.3513 30.4013 36.0311C31.7034 35.7948 33.01 35.5783 34.2814 35.1979L35.0953 34.9393L36.8964 34.1424L37.4906 33.8188L39.0937 32.662L39.5767 32.2267C40.0859 31.6599 40.5595 31.0652 40.9914 30.4372L41.2846 29.9293C41.5149 29.3607 41.7445 28.7921 41.9746 28.2235L42.1118 27.6298L42.3927 26.0277L42.4084 25.5269L42.4079 24.0256" fill="url(#paint0_linear)"/>
<path fill-rule="evenodd" clip-rule="evenodd" d="M35.2233 19.6335C34.2691 19.6225 33.5123 20.4188 33.5078 21.4385C33.5034 22.4605 34.245 23.2832 35.1851 23.2982C36.1097 23.3133 36.8997 22.4804 36.911 21.4783C36.9222 20.4652 36.1714 19.6445 35.2233 19.6335Z" fill="url(#paint1_linear)"/>
<path d="M25 0C11.1929 0 0 11.1929 0 25C0 38.8071 11.1929 50 25 50C38.8071 50 50 38.8071 50 25C50 11.1929 38.8071 0 25 0ZM25 1.90131C37.7571 1.90131 48.0987 12.2429 48.0987 25C48.0987 37.7571 37.7571 48.0987 25 48.0987C12.2429 48.0987 1.90131 37.7571 1.90131 25C1.90131 12.2429 12.2429 1.90131 25 1.90131V1.90131Z" fill="url(#paint2_linear)"/>
<defs>
<linearGradient id="paint0_linear" x1="7.3299" y1="29.8002" x2="36.5947" y2="11.2557" gradientUnits="userSpaceOnUse">
<stop stop-color="white"/>
<stop offset="1" stop-color="#32F05F"/>
</linearGradient>
<linearGradient id="paint1_linear" x1="33.7422" y1="23.2984" x2="36.9227" y2="19.9553" gradientUnits="userSpaceOnUse">
<stop stop-color="white"/>
<stop offset="1" stop-color="#32F05F"/>
</linearGradient>
<linearGradient id="paint2_linear" x1="-2.72694e-07" y1="50" x2="50" y2="1.1995" gradientUnits="userSpaceOnUse">
<stop stop-color="white"/>
<stop offset="1" stop-color="#32F05F"/>
</linearGradient>
</defs>
</svg>
